<svg id="bio" xmlns="http://www.w3.org/2000/svg" viewBox="0 0 250 250"><defs><style>.cls-1{fill:none;stroke:#005c23;stroke-miterlimit:22.93;stroke-width:10px;}.cls-2{fill:#005c23;}</style></defs><title>Artboard 1</title><path class="cls-1" d="M125.12,5A119.89,119.89,0,1,1,5.24,124.89,119.89,119.89,0,0,1,125.12,5Z"/><path class="cls-2" d="M183.13,159q14.64,0,14.64-21.84c0-6.58-1.17-11.78-3.5-15.55s-5.93-5.71-10.74-5.71c-5,0-8.73,2-11.16,5.88s-3.62,9.15-3.62,15.65q0,10.47,3.84,16A12.16,12.16,0,0,0,183.13,159m-.5,12q-14.28,0-21.77-10.25a38.7,38.7,0,0,1-7.51-23.49q0-14.26,8.29-23.73t22-9.5a27.34,27.34,0,0,1,21.22,9.23q8.3,9.27,8.29,24c0,10.15-2.85,18.29-8.62,24.47S191.46,170.92,182.63,170.94ZM140,169.59h-14.5v-64a12.49,12.49,0,0,0,14.5.08Zm-78-13.05H82.31c4.29,0,7.68-1.11,10.15-3.37a12.78,12.78,0,0,0,0-18.08,14.27,14.27,0,0,0-10-3.49H62.07Zm0-37.34h19.1c3.9,0,7-1.18,9.25-3.5a12.29,12.29,0,0,0,3.42-8.93c0-4-1.31-6.9-3.9-8.79a15,15,0,0,0-9.1-2.85H62.07ZM173.58,62.83c-30.12-.1-49.3,5.81-48,30,5.66-8.62,12.52-16,21.76-20.72a74.9,74.9,0,0,0-19.7,25.78c12.2,2.51,19.55-.76,24.94-6.3C160.7,83.29,159.16,71,173.58,62.83ZM47.25,169.59V103.36c-4.62-2.11-6.22-5.47-6.67-9.73C40,88.42,41,82,37.76,76.7a58.27,58.27,0,0,1,9.5,6H81.1a48.07,48.07,0,0,1,14.24,1.79A19.23,19.23,0,0,1,105.15,92a22,22,0,0,1,4.15,13.29,19.71,19.71,0,0,1-4.2,12.52,19,19,0,0,1-11.6,6.78c6.14,1.06,10.74,3.53,13.89,7.44a21.35,21.35,0,0,1,4.71,13.86,23.42,23.42,0,0,1-6.59,16.9q-6.6,6.85-20.26,6.84Z"/></svg>